PathFileType	3	(X/Y/Z)	D:\minhoCalibration\240510\subject1_KPNP\preferred\preferred06.trc
DataRate	CameraRate	NumFrames	NumMarkers	Units	OrigDataRate	OrigDataStartFrame	OrigNumFrames
200.0	200.0	21	10	mm	200.0	322	190	
Frame#	Time	Left_Ankle_Outer1			Left_Ankle_Inner1			Left_Knee_Outer1			Left_Knee_Inner1			Left_Wrist1			Right_Wrist1			Right_Knee_Inner1			Right_Knee_Outer1			Right_Ankle_Inner1			Right_Ankle_Outer1			
		X1	Y1	Z1	X2	Y2	Z2	X3	Y3	Z3	X4	Y4	Z4	X5	Y5	Z5	X6	Y6	Z6	X7	Y7	Z7	X8	Y8	Z8	X9	Y9	Z9	X10	Y10	Z10	
322	1.6	-435.47348	139.07762	-567.73065	-496.16696	137.88667	-561.2049	-500.52011	589.71307	-490.27072	-593.04871	531.16034	-529.74146	-534.20404	990.75732	-676.12445	-733.87164	988.54785	-971.25488	-700.12115	511.80792	-938.96509	-727.4162	548.04962	-1041.0247	-601.77844	113.15559	-1089.4019	-633.75134	113.93915	-1180.1263
323	1.605	-437.27377	138.99384	-568.2049	-497.65167	138.11821	-560.70923	-498.28232	589.79828	-488.02097	-591.78357	531.81128	-526.24445	-533.17987	990.71478	-674.49957	-733.45184	988.45514	-968.7196	-699.92535	511.54626	-937.77509	-727.14844	547.98407	-1039.865	-601.78125	112.99624	-1089.0652	-633.59814	114.32146	-1179.7253
324	1.61	-439.42343	138.67239	-568.49951	-499.60318	138.56081	-560.59644	-496.07776	589.79993	-485.78177	-590.5329	532.52576	-522.59497	-532.08282	990.29663	-672.77063	-733.0954	987.78003	-966.30225	-699.73547	511.27124	-936.52704	-726.90887	547.90747	-1038.6079	-601.74115	112.94635	-1088.7517	-633.49042	114.45219	-1179.3799
325	1.615	-441.47556	138.57257	-568.89734	-501.36221	138.56586	-559.70636	-493.82376	589.72217	-483.58093	-589.23309	533.14935	-518.94714	-531.20544	989.90607	-671.40118	-732.38495	987.38599	-964.71783	-699.64349	510.96707	-935.36603	-726.88477	548.05225	-1037.6384	-601.77234	112.86462	-1088.3546	-633.11841	115.16251	-1179.231
326	1.62	-443.86786	138.25528	-569.25104	-503.52353	138.7323	-559.20538	-491.58154	589.61432	-481.43268	-587.93317	533.7644	-515.33936	-529.96344	989.42041	-669.64343	-731.80316	987.46521	-962.73767	-699.5481	510.69611	-934.05859	-726.6908	547.9068	-1036.3217	-601.6333	112.9729	-1087.9534	-633.0014	115.46313	-1178.7812
327	1.625	-446.57642	138.12668	-569.72925	-506.04468	139.06984	-559.09302	-489.33292	589.37347	-479.228	-586.74817	534.27985	-511.8013	-528.83948	988.91901	-668.00208	-731.34698	987.06372	-960.20636	-699.52454	510.3103	-933.53284	-726.40527	547.61108	-1034.7211	-601.6701	112.89775	-1087.4561	-632.89539	115.77886	-1178.3705
328	1.63	-449.24036	137.90976	-570.22339	-508.38983	139.01382	-558.10706	-487.17896	589.08746	-477.01447	-585.50763	534.86523	-508.06659	-527.65051	988.42627	-666.30554	-730.45087	986.16876	-957.94812	-699.61938	510.10663	-931.49066	-726.46735	547.72894	-1033.5756	-601.60455	112.90871	-1087.0323	-632.81195	115.76376	-1178.0168
329	1.635	-452.48096	137.5873	-570.52899	-511.33127	139.31084	-557.99707	-485.06158	588.72034	-474.81583	-584.31152	535.3573	-504.34631	-526.38098	987.85419	-664.53424	-730.16669	986.15942	-955.68353	-699.64362	509.67538	-930.83167	-726.21289	547.37238	-1031.9492	-601.65613	112.84304	-1086.5131	-632.63312	116.1412	-1177.5439
330	1.64	-455.79233	137.35257	-570.98132	-514.12164	139.30428	-556.91461	-483.01883	588.32513	-472.63025	-583.25873	535.74951	-500.63531	-525.05554	987.14349	-662.74615	-729.4032	985.68762	-953.17688	-699.75604	509.35321	-928.72827	-726.35547	547.41125	-1030.6978	-601.57068	112.87485	-1086.1171	-632.71313	115.96387	-1176.7419
331	1.645	-459.32843	137.12256	-571.35406	-517.1264	139.37874	-556.29987	-481.07172	587.81018	-470.41107	-582.17267	536.15027	-496.9592	-523.66473	986.41992	-660.96326	-728.89093	985.52448	-950.76996	-699.8277	509.00455	-927.2207	-726.30731	547.28937	-1029.1782	-601.50323	112.84093	-1085.6021	-632.57074	116.20422	-1176.1926
332	1.65	-463.13235	136.80879	-571.7074	-520.52362	139.55443	-555.75165	-479.2222	587.23248	-468.13489	-581.18317	536.47101	-493.33685	-522.22083	985.57068	-659.17871	-728.36157	985.1076	-948.0896	-699.87073	508.59296	-925.74463	-726.1698	546.89569	-1027.3254	-601.51001	112.83656	-1084.9973	-632.36127	116.55126	-1175.733
333	1.655	-467.03391	136.55534	-571.91779	-523.87189	139.51428	-554.49774	-477.50192	586.58978	-465.7973	-580.30841	536.7915	-489.63293	-520.71698	984.64264	-657.39288	-727.92804	984.76208	-945.22253	-699.86182	508.13388	-924.87689	-726.25232	546.7132	-1025.6212	-601.44281	112.75618	-1084.3717	-632.25037	116.81158	-1175.1891
334	1.66	-471.10501	136.28615	-572.12598	-527.44684	139.54683	-553.70007	-475.90079	585.86078	-463.48755	-579.55872	537.05188	-485.9292	-519.11237	983.64282	-655.67072	-727.17871	984.27307	-942.95673	-699.9743	507.8147	-922.52936	-726.30164	546.56219	-1023.909	-601.3183	112.69077	-1083.7847	-631.87708	117.53654	-1174.8114
335	1.665	-475.3819	136.01709	-572.09521	-531.07806	139.63072	-552.83777	-474.45425	585.11487	-461.13364	-578.83478	537.2525	-482.40933	-517.52515	982.52197	-653.85065	-726.68689	983.73096	-939.70343	-700.01898	507.45441	-920.7569	-726.49292	546.55396	-1022.2587	-601.23151	112.72785	-1083.1696	-631.61749	117.93061	-1174.0647
336	1.67	-479.71906	135.71066	-572.00421	-534.95142	139.61194	-551.82263	-473.09509	584.23474	-458.78741	-578.15808	537.3299	-478.89066	-515.83502	981.32178	-652.07593	-726.01221	983.49634	-937.03754	-700.08063	507.09479	-918.81268	-726.48615	546.08215	-1020.1445	-601.16321	112.63243	-1082.4325	-631.37488	118.06409	-1173.4689
337	1.675	-484.16702	135.36781	-571.8703	-538.90405	139.4576	-550.75244	-471.77844	583.33325	-456.41016	-577.6665	537.40509	-475.32336	-514.16199	980.01038	-650.29559	-725.51855	982.92896	-934.00537	-699.9624	506.45279	-917.71155	-726.72211	546.04926	-1018.4019	-601.09338	112.58691	-1081.6066	-631.0802	118.24385	-1172.778
338	1.68	-488.59927	135.15331	-571.55255	-542.74146	139.31313	-549.57281	-470.21548	582.42316	-454.27713	-577.18317	537.41821	-471.76611	-512.3559	978.65503	-648.41425	-724.849	982.56732	-931.24768	-700.00726	506.00232	-915.74115	-726.90009	545.7674	-1016.403	-600.92944	112.53437	-1080.8835	-630.87305	118.24055	-1171.6562
339	1.685	-493.05533	134.79411	-571.20355	-546.79077	139.2438	-548.37018	-469.15128	581.30084	-451.86383	-576.8172	537.35754	-468.29816	-510.60944	977.17328	-646.60413	-724.37915	982.16754	-927.42542	-700.0611	505.59778	-913.17102	-727.11133	545.39691	-1014.3689	-600.74994	112.48933	-1080.0162	-630.54767	118.34589	-1170.8809
340	1.69	-497.44272	134.4892	-570.88489	-550.72986	139.116	-547.28168	-468.16208	580.16736	-449.41946	-576.55444	537.20691	-464.82571	-508.8244	975.6543	-644.77686	-723.62329	981.84454	-925.44489	-700.1405	504.87268	-911.92029	-727.38159	545.07709	-1012.3651	-600.45807	112.41576	-1079.2006	-630.07489	118.68543	-1170.0491
341	1.695	-501.86719	134.15718	-570.45422	-554.63519	138.90494	-546.05573	-467.15756	578.91461	-446.99438	-576.31207	536.93365	-461.40039	-507.16989	974.01465	-642.94617	-723.16553	981.13751	-922.23724	-700.35236	504.36838	-909.86761	-727.6806	544.63379	-1010.2216	-600.27838	112.31208	-1078.2953	-629.43365	119.45058	-1169.3883
342	1.7	-506.20972	133.86292	-570.05646	-558.49548	138.73549	-544.93372	-466.36154	577.57538	-444.56815	-576.11749	536.5835	-457.9895	-505.46585	972.39124	-641.15771	-722.82812	980.38043	-918.99707	-700.72021	503.75934	-907.09686	-728.17792	544.19916	-1008.0876	-600.24615	112.06072	-1077.3274	-629.07117	119.60439	-1168.6132
